name Walk7.mot
datacolumns 19
datarows 15
range 2.94200000 2.95600000
endheader

                time	   L_ground_force_vx	   L_ground_force_vy	   L_ground_force_vz	   L_ground_force_px	   L_ground_force_py	   L_ground_force_pz	   R_ground_force_vx	   R_ground_force_vy	   R_ground_force_vz	   R_ground_force_px	   R_ground_force_py	   R_ground_force_pz	   L_ground_torque_x	   L_ground_torque_y	   L_ground_torque_z	   R_ground_torque_x	   R_ground_torque_y	   R_ground_torque_z	
          2.94200000	         -1.88484751	        729.37714152	         52.80007712	         -0.28784420	          0.00000000	         -0.06284848	          0.00053975	          0.12731261	          0.02128743	          0.00007668	          0.00000000	          0.00007489	          0.00000000	          2.67576375	          0.00000000	          0.00000000	          0.00150387	          0.00000000	
          2.94300000	         -1.31527948	        730.28811560	         52.97020159	         -0.28772753	          0.00000000	         -0.06287283	          0.00042590	          0.13828865	          0.02249201	          0.00008130	          0.00000000	          0.00007931	          0.00000000	          2.66431438	          0.00000000	          0.00000000	          0.00168485	          0.00000000	
          2.94400000	         -0.73962826	        731.20768588	         53.14140271	         -0.28761281	          0.00000000	         -0.06289729	          0.00029972	          0.14971351	          0.02371564	          0.00008601	          0.00000000	          0.00008381	          0.00000000	          2.65254554	          0.00000000	          0.00000000	          0.00187569	          0.00000000	
          2.94500000	         -0.15794136	        732.13564345	         53.31361420	         -0.28750002	          0.00000000	         -0.06292185	          0.00016057	          0.16158172	          0.02495503	          0.00009080	          0.00000000	          0.00008838	          0.00000000	          2.64045227	          0.00000000	          0.00000000	          0.00207652	          0.00000000	
          2.94600000	          0.42973334	        733.07178526	         53.48677174	         -0.28738910	          0.00000000	         -0.06294646	          0.00000783	          0.17388547	          0.02620653	          0.00009567	          0.00000000	          0.00009301	          0.00000000	          2.62802958	          0.00000000	          0.00000000	          0.00228743	          0.00000000	
          2.94700000	          1.02334735	        734.01591404	         53.66081283	         -0.28728001	          0.00000000	         -0.06297112	         -0.00015914	          0.18661442	          0.02746609	          0.00010059	          0.00000000	          0.00009769	          0.00000000	          2.61527217	          0.00000000	          0.00000000	          0.00250849	          0.00000000	
          2.94800000	          1.62285165	        734.96783735	         53.83567650	         -0.28717272	          0.00000000	         -0.06299578	         -0.00034096	          0.19975550	          0.02872927	          0.00010555	          0.00000000	          0.00010240	          0.00000000	          2.60217418	          0.00000000	          0.00000000	          0.00273974	          0.00000000	
          2.94900000	          2.22819698	        735.92736659	         54.01130319	         -0.28706717	          0.00000000	         -0.06302043	         -0.00053827	          0.21329275	          0.02999118	          0.00011054	          0.00000000	          0.00010712	          0.00000000	          2.58872914	          0.00000000	          0.00000000	          0.00298116	          0.00000000	
          2.95000000	          2.83933437	        736.89431591	         54.18763452	         -0.28696334	          0.00000000	         -0.06304503	         -0.00075170	          0.22720706	          0.03124649	          0.00011553	          0.00000000	          0.00011184	          0.00000000	          2.57493007	          0.00000000	          0.00000000	          0.00323271	          0.00000000	
          2.95100000	          3.45621578	        737.86850150	         54.36461330	         -0.28686118	          0.00000000	         -0.06306955	         -0.00098185	          0.24147602	          0.03248940	          0.00012051	          0.00000000	          0.00011654	          0.00000000	          2.56076985	          0.00000000	          0.00000000	          0.00349427	          0.00000000	
          2.95200000	          4.07879468	        738.84974099	         54.54218336	         -0.28676066	          0.00000000	         -0.06309396	         -0.00122934	          0.25607365	          0.03371364	          0.00012546	          0.00000000	          0.00012119	          0.00000000	          2.54624169	          0.00000000	          0.00000000	          0.00376571	          0.00000000	
          2.95300000	          4.70702643	        739.83785287	         54.72028960	         -0.28666174	          0.00000000	         -0.06311823	         -0.00149475	          0.27097021	          0.03491240	          0.00013035	          0.00000000	          0.00012577	          0.00000000	          2.53133973	          0.00000000	          0.00000000	          0.00404683	          0.00000000	
          2.95400000	          5.34086847	        740.83265589	         54.89887804	         -0.28656438	          0.00000000	         -0.06314231	         -0.00177864	          0.28613194	          0.03607837	          0.00013515	          0.00000000	          0.00013026	          0.00000000	          2.51605964	          0.00000000	          0.00000000	          0.00433735	          0.00000000	
          2.95500000	          5.98028027	        741.83396851	         55.07789595	         -0.28646855	          0.00000000	         -0.06316617	         -0.00208157	          0.30152088	          0.03720369	          0.00013985	          0.00000000	          0.00013463	          0.00000000	          2.50039896	          0.00000000	          0.00000000	          0.00463696	          0.00000000	
          2.95600000	          6.62522312	        742.84160845	         55.25729198	         -0.28637418	          0.00000000	         -0.06318977	         -0.00240406	          0.31709458	          0.03827993	          0.00014440	          0.00000000	          0.00013885	          0.00000000	          2.48435736	          0.00000000	          0.00000000	          0.00494526	          0.00000000	
